<svg xmlns="http://www.w3.org/2000/svg" viewBox="0 0 360 200" width="360" height="200">
  <!-- Three characters in a tight happy group — family feel -->
  <!-- Character left small -->
  <g transform="translate(70,110)">
    <ellipse cx="0" cy="80" rx="24" ry="5" fill="#3580F0" opacity="0.1"/>
    <circle cx="0" cy="22" r="34" fill="#3580F0"/>
    <ellipse cx="-9" cy="8" rx="12" ry="8" fill="#5B9DF5" opacity="0.35"/>
    <path d="M-26 18 Q-42 28 -38 46" stroke="#3580F0" stroke-width="13" stroke-linecap="round" fill="none"/>
    <circle cx="-38" cy="51" r="9" fill="#F5E6D3"/>
    <path d="M26 14 Q42 -2 34 -16" stroke="#3580F0" stroke-width="13" stroke-linecap="round" fill="none"/>
    <circle cx="31" cy="-20" r="9" fill="#F5E6D3"/>
    <circle cx="0" cy="18" r="22" fill="#F5E6D3"/>
    <path d="M-8 12 Q-5 8 -2 12" stroke="#2c2c2c" stroke-width="2" fill="none" stroke-linecap="round"/>
    <path d="M2 12 Q5 8 8 12" stroke="#2c2c2c" stroke-width="2" fill="none" stroke-linecap="round"/>
    <path d="M-7 24 Q0 30 7 24" stroke="#2c2c2c" stroke-width="2" fill="none" stroke-linecap="round"/>
    <path d="M-12 44 Q0 50 12 44" stroke="#E8724A" stroke-width="6" stroke-linecap="round" fill="none"/>
    <path d="M6 46 Q9 54 7 61" stroke="#E8724A" stroke-width="5" stroke-linecap="round" fill="none"/>
    <rect x="-10" y="56" width="9" height="16" rx="4" fill="#2A5FBF"/>
    <rect x="1" y="56" width="9" height="16" rx="4" fill="#2A5FBF"/>
    <ellipse cx="-5" cy="73" rx="9" ry="5" fill="#1a1a1a"/>
    <ellipse cx="5" cy="73" rx="9" ry="5" fill="#1a1a1a"/>
  </g>

  <!-- Character centre large — celebrating arms up -->
  <g transform="translate(180,100)">
    <ellipse cx="0" cy="98" rx="38" ry="8" fill="#3580F0" opacity="0.1"/>
    <circle cx="0" cy="26" r="52" fill="#3580F0"/>
    <ellipse cx="-14" cy="4" rx="18" ry="12" fill="#5B9DF5" opacity="0.35"/>
    <path d="M-40 18 Q-64 -10 -52 -32" stroke="#3580F0" stroke-width="18" stroke-linecap="round" fill="none"/>
    <circle cx="-50" cy="-36" r="13" fill="#F5E6D3"/>
    <path d="M40 18 Q64 -10 52 -32" stroke="#3580F0" stroke-width="18" stroke-linecap="round" fill="none"/>
    <circle cx="50" cy="-36" r="13" fill="#F5E6D3"/>
    <circle cx="0" cy="20" r="34" fill="#F5E6D3"/>
    <path d="M-12 12 Q-8 6 -4 12" stroke="#2c2c2c" stroke-width="2.8" fill="none" stroke-linecap="round"/>
    <path d="M4 12 Q8 6 12 12" stroke="#2c2c2c" stroke-width="2.8" fill="none" stroke-linecap="round"/>
    <path d="M-12 28 Q0 38 12 28" stroke="#2c2c2c" stroke-width="2.8" fill="none" stroke-linecap="round"/>
    <ellipse cx="-20" cy="24" rx="8" ry="5" fill="#E8724A" opacity="0.2"/>
    <ellipse cx="20" cy="24" rx="8" ry="5" fill="#E8724A" opacity="0.2"/>
    <path d="M-18 60 Q0 70 18 60" stroke="#E8724A" stroke-width="8" stroke-linecap="round" fill="none"/>
    <path d="M11 64 Q15 75 12 85" stroke="#E8724A" stroke-width="7" stroke-linecap="round" fill="none"/>
    <rect x="-15" y="76" width="13" height="20" rx="6" fill="#2A5FBF"/>
    <rect x="2" y="76" width="13" height="20" rx="6" fill="#2A5FBF"/>
    <ellipse cx="-8" cy="97" rx="11" ry="6" fill="#1a1a1a"/>
    <ellipse cx="8" cy="97" rx="11" ry="6" fill="#1a1a1a"/>
    <!-- confetti -->
    <rect x="-64" y="-48" width="8" height="6" rx="1" fill="#E8724A" opacity="0.8" transform="rotate(-20,-60,-45)"/>
    <rect x="54" y="-46" width="6" height="8" rx="1" fill="#2BAE9E" opacity="0.8" transform="rotate(15,57,-42)"/>
    <circle cx="-42" cy="-50" r="5" fill="#F5C518" opacity="0.9"/>
    <circle cx="44" cy="-52" r="4" fill="#E8724A" opacity="0.8"/>
  </g>

  <!-- Character right small -->
  <g transform="translate(290,110)">
    <ellipse cx="0" cy="80" rx="24" ry="5" fill="#3580F0" opacity="0.1"/>
    <circle cx="0" cy="22" r="34" fill="#3580F0"/>
    <ellipse cx="-9" cy="8" rx="12" ry="8" fill="#5B9DF5" opacity="0.35"/>
    <path d="M26 18 Q42 28 38 46" stroke="#3580F0" stroke-width="13" stroke-linecap="round" fill="none"/>
    <circle cx="38" cy="51" r="9" fill="#F5E6D3"/>
    <path d="M-26 14 Q-42 -2 -34 -16" stroke="#3580F0" stroke-width="13" stroke-linecap="round" fill="none"/>
    <circle cx="-31" cy="-20" r="9" fill="#F5E6D3"/>
    <circle cx="0" cy="18" r="22" fill="#F5E6D3"/>
    <path d="M-8 12 Q-5 8 -2 12" stroke="#2c2c2c" stroke-width="2" fill="none" stroke-linecap="round"/>
    <path d="M2 12 Q5 8 8 12" stroke="#2c2c2c" stroke-width="2" fill="none" stroke-linecap="round"/>
    <path d="M-7 24 Q0 30 7 24" stroke="#2c2c2c" stroke-width="2" fill="none" stroke-linecap="round"/>
    <path d="M-12 44 Q0 50 12 44" stroke="#E8724A" stroke-width="6" stroke-linecap="round" fill="none"/>
    <path d="M6 46 Q9 54 7 61" stroke="#E8724A" stroke-width="5" stroke-linecap="round" fill="none"/>
    <rect x="-10" y="56" width="9" height="16" rx="4" fill="#2A5FBF"/>
    <rect x="1" y="56" width="9" height="16" rx="4" fill="#2A5FBF"/>
    <ellipse cx="-5" cy="73" rx="9" ry="5" fill="#1a1a1a"/>
    <ellipse cx="5" cy="73" rx="9" ry="5" fill="#1a1a1a"/>
  </g>
</svg>
