<svg width="107" height="150" viewBox="0 0 107 150" fill="none" xmlns="http://www.w3.org/2000/svg">
<path d="M32.0353 110.735V131.946C32.0353 136.194 30.3477 140.269 27.3438 143.272C24.3399 146.276 20.2658 147.964 16.0176 147.964C11.7695 147.964 7.69536 146.276 4.69147 143.272C1.68758 140.269 1.5803e-05 136.194 1.5803e-05 131.946V61.8691C-0.0079813 72.2622 3.39511 82.9478 8.68143 91.026C14.3724 99.7225 22.5081 106.582 32.0353 110.735Z" fill="#FF975C"/>
<path d="M16.0196 32.0352C24.8659 32.0352 32.0372 24.8639 32.0372 16.0176C32.0372 7.17133 24.8659 0 16.0196 0C7.17329 0 0.00195312 7.17133 0.00195312 16.0176C0.00195312 24.8639 7.17329 32.0352 16.0196 32.0352Z" fill="#FF975C"/>
<path d="M90.6993 32.0352C99.5456 32.0352 106.717 24.8639 106.717 16.0176C106.717 7.17133 99.5456 0 90.6993 0C81.853 0 74.6816 7.17133 74.6816 16.0176C74.6816 24.8639 81.853 32.0352 90.6993 32.0352Z" fill="#FF975C"/>
<path fill-rule="evenodd" clip-rule="evenodd" d="M106.617 61.8688V58.365C106.791 56.1618 106.508 53.9463 105.785 51.8579C105.062 49.7695 103.914 47.8534 102.414 46.23C100.915 44.6067 99.0951 43.3113 97.0703 42.4254C95.0456 41.5394 92.8594 41.082 90.6493 41.082C88.4392 41.082 86.2531 41.5394 84.2283 42.4254C82.2036 43.3113 80.3841 44.6067 78.8843 46.23C77.3845 47.8534 76.2369 49.7695 75.5137 51.8579C74.7904 53.9463 74.5072 56.1618 74.6818 58.365V61.8688C74.6818 67.5242 72.4352 72.9479 68.4363 76.9468C64.4373 80.9457 59.0136 83.1923 53.3583 83.1923C49.359 83.1363 45.4834 84.5785 42.4937 87.2354C39.504 89.8923 37.6165 93.5717 37.2023 97.5499C36.7882 101.528 37.8774 105.517 40.2558 108.733C42.6341 111.949 46.1296 114.158 50.0547 114.927C52.2211 115.077 54.3954 115.077 56.5618 114.927C62.791 114.597 68.9185 113.209 74.6818 110.823C74.682 110.823 74.6822 110.822 74.6825 110.822V131.946C74.5079 134.149 74.7911 136.365 75.5144 138.453C76.2376 140.542 77.3853 142.458 78.885 144.081C80.3848 145.705 82.2043 147 84.229 147.886C86.2538 148.772 88.44 149.229 90.6501 149.229C92.8601 149.229 95.0463 148.772 97.0711 147.886C99.0958 147 100.915 145.705 102.415 144.081C103.915 142.458 105.062 140.542 105.786 138.453C106.509 136.365 106.792 134.149 106.618 131.946V61.9494C106.617 62.2004 106.615 62.4505 106.61 62.6999C106.614 62.4231 106.617 62.146 106.617 61.8688Z" fill="#FF975C"/>
<path d="M50.0551 114.927C43.8441 114.623 37.7391 113.199 32.0353 110.722C22.5237 106.575 14.4275 99.7456 8.73776 91.0687C3.04797 82.3918 0.0114847 72.2442 0 61.8682L0 58.3643C0.0259046 54.1414 1.7081 50.0974 4.6848 47.102C7.6615 44.1066 11.6949 42.3991 15.9175 42.3467C18.021 42.3467 20.1038 42.761 22.0472 43.5659C23.9905 44.3709 25.7563 45.5508 27.2437 47.0381C28.7311 48.5255 29.9109 50.2913 30.7159 52.2346C31.5208 54.178 31.9351 56.2608 31.9351 58.3643V61.8682C31.9615 67.5154 34.2165 72.9238 38.2097 76.917C42.203 80.9103 47.6114 83.1653 53.2586 83.1916C49.2687 83.1621 45.4113 84.6228 42.4418 87.2878C39.4722 89.9528 37.6042 93.6302 37.2034 97.6001C36.8027 101.57 37.8981 105.546 40.2751 108.751C42.6522 111.956 46.1397 114.158 50.0551 114.927Z" fill="#FFA878"/>
</svg>
